<?xml version="1.0" encoding="utf-8"?>
<!-- Generator: Adobe Illustrator 21.0.2, SVG Export Plug-In . SVG Version: 6.00 Build 0)  -->
<svg version="1.1" id="Ebene_1" xmlns="http://www.w3.org/2000/svg" xmlns:xlink="http://www.w3.org/1999/xlink" x="0px" y="0px"
	 viewBox="0 0 66.8 130.2" style="enable-background:new 0 0 66.8 130.2;" xml:space="preserve">
<style type="text/css">
	.st0{fill:#FFFFFF;}
</style>
<path class="st0" d="M63.8,101.9C64.2,91.5,62.9,81,60.1,71c-0.7-2.7-1.6-5.3-2.5-7.9c-0.4-1.5-0.9-3-1.3-4.6
	c-6.2-19.3-19.4-41.6-40.6-46.3c2.1,0.3,4.2,0.5,6.3,0.8c6.4,0.8,12.8,1.5,19.2,2.2c1.6,0.2,1.9-2.1,0.4-2.5
	c-0.8-0.2-1.6-0.4-2.4-0.6C39,12.1,38.9,12,38.7,12c-0.7-0.2-1.4-0.3-2.1-0.5c0.8,0.1,1.6,0.1,2.5,0.1c1.5,0.1,2-1.9,0.7-2.5
	C39.6,9,39.3,8.8,39,8.8c-1.1-0.2-2.2-0.4-3.3-0.6C25.9,5.9,15.9,4,5.9,2.6c-0.4-0.1-0.8,0.1-1,0.3C4.3,2.8,3.6,3.1,3.4,3.7
	C2.5,3,0.9,3.8,1.5,5c3.8,7.4,7.8,14.8,12.6,21.6c2.3,4.3,4.9,8.4,7.6,12.5c0.8,1.2,2.5-0.1,1.8-1.3c-0.3-0.4-0.5-0.8-0.8-1.3
	c0.7,0.4,1.4-0.1,1.6-0.7c0.5,0.6,1,1.3,1.4,1.9c1,1.3,2.8-0.1,2-1.5c-4.4-7-8.8-13.9-13.2-20.9c0.4,0.2,0.8,0.5,1.2,0.7
	c7.8,5.3,13.9,13,19.1,20.7c5.8,8.6,10.4,17.9,13.7,27.7c5.8,17,7.5,35,5.3,52.7c-0.4,2-0.8,3.9-1.3,5.9c-0.1,0.3,0,0.6,0.2,0.9
	c-0.1,0.6-0.2,1.2-0.3,1.7c-0.3,1.3,1.8,2,2.3,0.7c0.3-0.8,0.6-1.7,0.9-2.5C63.3,120.5,63.5,109.1,63.8,101.9z M32.9,10.7
	c-0.8-0.2-1.7-0.4-2.5-0.6c1.3,0.2,2.5,0.4,3.8,0.5c0,0.1,0.1,0.2,0.2,0.3C33.9,10.9,33.4,10.8,32.9,10.7z M22.9,18
	c-0.9-0.7-1.8-1.3-2.8-2c1.1,0.4,2.1,0.9,3.1,1.4C23.1,17.6,23,17.8,22.9,18z M29.1,21c5.7,4.1,10.4,9.6,14.4,15.7
	C39.3,31,34.5,25.7,29.1,21z M50.5,62.4c-3.6-10.1-8.5-19.8-14.8-28.6c-0.6-0.9-1.3-1.7-1.9-2.6c6.9,7.8,12.3,16.8,16,26.5
	c3,7.9,4.9,16,5.7,24.2C54.4,75.3,52.7,68.8,50.5,62.4z M53.2,58.6c0.8,1.8,1.5,3.6,2.1,5.4c1.5,5.5,2.5,11.2,3,16.9
	C57.4,73.3,55.7,65.8,53.2,58.6z M56.7,120.3c0.1-0.5,0.3-0.9,0.4-1.4c0.6,0,1.1-0.3,1.2-1c0.3-2.2,0.5-4.4,0.7-6.7
	c1.4-6.7,2.1-13.4,2.2-20.2c0.1,1.3,0.2,2.6,0.2,4c0.2,4.8,0,9.6-0.6,14.4C60.4,113,59.5,117.7,56.7,120.3z"/>
<g>
</g>
<g>
</g>
<g>
</g>
<g>
</g>
<g>
</g>
<g>
</g>
</svg>
